<svg id="visual" viewBox="0 0 900 450" width="900" height="450" xmlns="http://www.w3.org/2000/svg" xmlns:xlink="http://www.w3.org/1999/xlink" version="1.1"><rect x="0" y="0" width="900" height="450" fill="#001220"></rect><defs><linearGradient id="grad1_0" x1="50%" y1="0%" x2="100%" y2="100%"><stop offset="10%" stop-color="#001220" stop-opacity="1"></stop><stop offset="90%" stop-color="#001220" stop-opacity="1"></stop></linearGradient></defs><defs><linearGradient id="grad2_0" x1="0%" y1="0%" x2="50%" y2="100%"><stop offset="10%" stop-color="#001220" stop-opacity="1"></stop><stop offset="90%" stop-color="#001220" stop-opacity="1"></stop></linearGradient></defs><g transform="translate(900, 0)"><path d="M0 405C-44.2 369.4 -88.3 333.9 -127.8 308.6C-167.3 283.3 -202.1 268.3 -246.8 246.8C-291.5 225.3 -346.1 197.2 -374.2 155C-402.2 112.8 -403.6 56.4 -405 0L0 0Z" fill="#FBAE3C"></path></g><g transform="translate(0, 450)"><path d="M0 -405C58.5 -405.1 117 -405.1 155 -374.2C192.9 -343.2 210.3 -281.2 239.7 -239.7C269.1 -198.2 310.4 -177.4 340 -140.8C369.5 -104.3 387.3 -52.2 405 0L0 0Z" fill="#FBAE3C"></path></g></svg>