<svg id="visual" viewBox="0 0 900 600" width="900" height="600" xmlns="http://www.w3.org/2000/svg" xmlns:xlink="http://www.w3.org/1999/xlink" version="1.1"><rect x="0" y="0" width="900" height="600" fill="#140021"></rect><path d="M0 330L150 330L150 286L300 286L300 245L450 245L450 251L600 251L600 319L750 319L750 266L900 266L900 267L900 601L900 601L750 601L750 601L600 601L600 601L450 601L450 601L300 601L300 601L150 601L150 601L0 601Z" fill="#9900ff"></path><path d="M0 353L150 353L150 335L300 335L300 324L450 324L450 413L600 413L600 396L750 396L750 405L900 405L900 420L900 601L900 601L750 601L750 601L600 601L600 601L450 601L450 601L300 601L300 601L150 601L150 601L0 601Z" fill="#8200d9"></path><path d="M0 444L150 444L150 418L300 418L300 477L450 477L450 408L600 408L600 403L750 403L750 477L900 477L900 410L900 601L900 601L750 601L750 601L600 601L600 601L450 601L450 601L300 601L300 601L150 601L150 601L0 601Z" fill="#6c00b4"></path><path d="M0 545L150 545L150 495L300 495L300 476L450 476L450 542L600 542L600 504L750 504L750 552L900 552L900 516L900 601L900 601L750 601L750 601L600 601L600 601L450 601L450 601L300 601L300 601L150 601L150 601L0 601Z" fill="#560090"></path></svg>