<svg id="visual" viewBox="0 0 900 600" width="900" height="600" xmlns="http://www.w3.org/2000/svg" xmlns:xlink="http://www.w3.org/1999/xlink" version="1.1"><rect x="0" y="0" width="900" height="600" fill="#140021"></rect><path d="M0 366L150 366L150 337L300 337L300 371L450 371L450 298L600 298L600 335L750 335L750 382L900 382L900 376L900 601L900 601L750 601L750 601L600 601L600 601L450 601L450 601L300 601L300 601L150 601L150 601L0 601Z" fill="#9900ff"></path><path d="M0 440L150 440L150 402L300 402L300 361L450 361L450 424L600 424L600 442L750 442L750 429L900 429L900 441L900 601L900 601L750 601L750 601L600 601L600 601L450 601L450 601L300 601L300 601L150 601L150 601L0 601Z" fill="#8200d9"></path><path d="M0 477L150 477L150 485L300 485L300 476L450 476L450 434L600 434L600 501L750 501L750 449L900 449L900 450L900 601L900 601L750 601L750 601L600 601L600 601L450 601L450 601L300 601L300 601L150 601L150 601L0 601Z" fill="#6c00b4"></path><path d="M0 523L150 523L150 498L300 498L300 500L450 500L450 546L600 546L600 560L750 560L750 530L900 530L900 521L900 601L900 601L750 601L750 601L600 601L600 601L450 601L450 601L300 601L300 601L150 601L150 601L0 601Z" fill="#560090"></path></svg>