<svg id="visual" viewBox="0 0 900 450" width="900" height="450" xmlns="http://www.w3.org/2000/svg" xmlns:xlink="http://www.w3.org/1999/xlink" version="1.1"><rect x="0" y="0" width="900" height="450" fill="#002233"></rect><path d="M0 338L21.5 330.2C43 322.3 86 306.7 128.8 304.8C171.7 303 214.3 315 257.2 326.7C300 338.3 343 349.7 385.8 342.7C428.7 335.7 471.3 310.3 514.2 304.3C557 298.3 600 311.7 642.8 328.2C685.7 344.7 728.3 364.3 771.2 372.5C814 380.7 857 377.3 878.5 375.7L900 374L900 451L878.5 451C857 451 814 451 771.2 451C728.3 451 685.7 451 642.8 451C600 451 557 451 514.2 451C471.3 451 428.7 451 385.8 451C343 451 300 451 257.2 451C214.3 451 171.7 451 128.8 451C86 451 43 451 21.5 451L0 451Z" fill="#0066FF" stroke-linecap="round" stroke-linejoin="miter"></path></svg>